<?xml version="1.0" encoding="UTF-8"?>
<!DOCTYPE svg PUBLIC "-//W3C//DTD SVG 1.1//EN" "http://www.w3.org/Graphics/SVG/1.1/DTD/svg11.dtd">
<svg xmlns="http://www.w3.org/2000/svg" version="1.1" width="1600px" height="1600px" style="shape-rendering:geometricPrecision; text-rendering:geometricPrecision; image-rendering:optimizeQuality; fill-rule:evenodd; clip-rule:evenodd" xmlns:xlink="http://www.w3.org/1999/xlink">
<g><path style="opacity:0.995" fill="#8c9eff" d="M 596.5,265.5 C 597.978,265.238 599.311,265.571 600.5,266.5C 605.833,277.167 611.167,287.833 616.5,298.5C 498.132,325.173 394.798,379.339 306.5,461C 328.631,450.937 350.631,440.27 372.5,429C 532.109,351.673 700.443,320.34 877.5,335C 979.1,341.484 1076.77,364.484 1170.5,404C 1211.56,421.529 1251.89,440.696 1291.5,461.5C 1220.58,392.754 1136.92,343.921 1040.5,315C 1021.19,309.394 1001.85,303.894 982.5,298.5C 987.833,287.833 993.167,277.167 998.5,266.5C 1032,268.306 1065,273.806 1097.5,283C 1182.94,307.724 1261.28,346.224 1332.5,398.5C 1348.52,423.194 1363.02,448.86 1376,475.5C 1432.48,595.943 1473.15,721.61 1498,852.5C 1516.15,945.39 1527.82,1039.06 1533,1133.5C 1461.35,1213.71 1373.85,1269.88 1270.5,1302C 1214.55,1320.36 1157.21,1330.53 1098.5,1332.5C 1080.67,1308.83 1062.83,1285.17 1045,1261.5C 1044.33,1260.83 1044.33,1260.17 1045,1259.5C 1153.24,1221.74 1245.9,1160.74 1323,1076.5C 1323.69,1075.67 1323.52,1075 1322.5,1074.5C 1207.41,1158.16 1078.74,1208.33 936.5,1225C 817.064,1239.44 698.397,1234.77 580.5,1211C 469.111,1186.97 367.777,1141.47 276.5,1074.5C 275.479,1075 275.312,1075.67 276,1076.5C 353.096,1160.74 445.763,1221.74 554,1259.5C 554.667,1260.17 554.667,1260.83 554,1261.5C 536.167,1285.17 518.333,1308.83 500.5,1332.5C 368.037,1326.52 248.703,1284.35 142.5,1206C 114.824,1184.22 89.3245,1160.06 66,1133.5C 74.8541,958.374 107.187,787.707 163,621.5C 188.692,545.722 221.692,473.389 262,404.5C 263.922,401.157 266.422,398.323 269.5,396C 367.264,324.8 476.264,281.3 596.5,265.5 Z M 571.5,733.5 C 625.984,733.14 664.484,757.807 687,807.5C 706.714,858.195 701.714,906.195 672,951.5C 641.14,991.838 600.974,1006 551.5,994C 513.896,979.728 488.396,953.562 475,915.5C 459.643,867.347 465.976,822.347 494,780.5C 513.572,754.466 539.405,738.799 571.5,733.5 Z M 1004.5,733.5 C 1057.89,732.746 1096.06,756.413 1119,804.5C 1139.97,855.483 1135.64,904.15 1106,950.5C 1074.15,992.665 1032.65,1006.83 981.5,993C 941.763,975.922 916.263,946.422 905,904.5C 894.302,860.687 901.302,820.02 926,782.5C 945.666,755.592 971.833,739.259 1004.5,733.5 Z"/></g>
</svg>
